<svg xmlns="http://www.w3.org/2000/svg" width="14" height="14" viewBox="0 0 14 14">
  <g id="calender" transform="translate(-282.705 -335.705)">
    <g id="사각형_928" data-name="사각형 928" transform="translate(282.705 335.705)" stroke="#000" stroke-width="1" opacity="0">
      <rect width="14" height="14" stroke="none"/>
      <rect x="0.5" y="0.5" width="13" height="13" fill="none"/>
    </g>
    <g id="그룹_1245" data-name="그룹 1245" transform="translate(283.739 336.842)">
      <path id="패스_2804" data-name="패스 2804" d="M2025.367,2656.308h1.221a1.1,1.1,0,0,1,.218.023,1.071,1.071,0,0,1,.2.066,1.021,1.021,0,0,1,.184.1,1.076,1.076,0,0,1,.16.137,1.238,1.238,0,0,1,.133.165,1.217,1.217,0,0,1,.1.191,1.1,1.1,0,0,1,.063.209,1.148,1.148,0,0,1,.023.226v8.764a1.173,1.173,0,0,1-.086.436,1.229,1.229,0,0,1-.1.19,1.216,1.216,0,0,1-.133.166,1.066,1.066,0,0,1-.16.135,1.054,1.054,0,0,1-.6.191h-9.767a1.057,1.057,0,0,1-.421-.088,1.015,1.015,0,0,1-.184-.1,1.068,1.068,0,0,1-.16-.135,1.174,1.174,0,0,1-.132-.166,1.214,1.214,0,0,1-.1-.19,1.176,1.176,0,0,1-.063-.21,1.158,1.158,0,0,1-.022-.225v-8.764a1.166,1.166,0,0,1,.022-.226,1.137,1.137,0,0,1,.063-.209,1.113,1.113,0,0,1,.232-.356,1.078,1.078,0,0,1,.16-.137,1.011,1.011,0,0,1,.184-.1,1.065,1.065,0,0,1,.2-.066,1.1,1.1,0,0,1,.219-.023h1.22" transform="translate(-2015.739 -2655.584)" fill="none" stroke="#000" stroke-linecap="round" stroke-linejoin="round" stroke-width="1"/>
      <path id="패스_2805" data-name="패스 2805" d="M2034.75,2656.309h.582" transform="translate(-2029.076 -2655.585)" fill="none" stroke="#000" stroke-linecap="round" stroke-linejoin="round" stroke-width="1"/>
      <g id="그룹_1244" data-name="그룹 1244" transform="translate(4.235)">
        <line id="선_138" data-name="선 138" y2="1.498" transform="translate(0)" fill="#fff" stroke="#000" stroke-linecap="round" stroke-linejoin="round" stroke-width="1"/>
        <line id="선_139" data-name="선 139" y2="1.498" transform="translate(3.46)" fill="#fff" stroke="#000" stroke-linecap="round" stroke-linejoin="round" stroke-width="1"/>
      </g>
      <line id="선_140" data-name="선 140" x2="11.672" transform="translate(0.078 4.054)" fill="none" stroke="#000" stroke-linecap="round" stroke-linejoin="round" stroke-width="1"/>
      <line id="선_141" data-name="선 141" x1="2.685" transform="translate(4.623 6.37)" fill="none" stroke="#000" stroke-linecap="round" stroke-width="1"/>
      <line id="선_142" data-name="선 142" x1="2.685" transform="translate(4.623 9.192)" fill="none" stroke="#000" stroke-linecap="round" stroke-width="1"/>
    </g>
  </g>
</svg>
