<?xml version="1.0" encoding="utf-8"?>
<!-- Generator: Adobe Illustrator 28.3.0, SVG Export Plug-In . SVG Version: 6.00 Build 0)  -->
<svg version="1.1" id="레이어_1" xmlns="http://www.w3.org/2000/svg" xmlns:xlink="http://www.w3.org/1999/xlink" x="0px"
	 y="0px" viewBox="0 0 24 24" style="enable-background:new 0 0 24 24;" xml:space="preserve">
<style type="text/css">
	.st0{fill:none;stroke:#345B9B;stroke-width:2;stroke-linecap:round;stroke-linejoin:round;}
</style>
<path class="st0" d="M4,3h5c0.6,0,1,0.4,1,1v7c0,0.6-0.4,1-1,1H4c-0.6,0-1-0.4-1-1V4C3,3.4,3.4,3,4,3z"/>
<path class="st0" d="M15,3h5c0.6,0,1,0.4,1,1v3c0,0.6-0.4,1-1,1h-5c-0.6,0-1-0.4-1-1V4C14,3.4,14.4,3,15,3z"/>
<path class="st0" d="M15,12h5c0.6,0,1,0.4,1,1v7c0,0.6-0.4,1-1,1h-5c-0.6,0-1-0.4-1-1v-7C14,12.4,14.4,12,15,12z"/>
<path class="st0" d="M4,16h5c0.6,0,1,0.4,1,1v3c0,0.6-0.4,1-1,1H4c-0.6,0-1-0.4-1-1v-3C3,16.4,3.4,16,4,16z"/>
</svg>
