<svg xmlns="http://www.w3.org/2000/svg" width="197.333" height="31.041" viewBox="0 0 197.333 31.041">
  <g id="그룹_15068" data-name="그룹 15068" transform="translate(161.209 -670.875)">
    <path id="패스_1" data-name="패스 1" d="M-136.45,680.652a18.114,18.114,0,0,0-3.172-4.858,16.993,16.993,0,0,0-4.662-3.392A13.509,13.509,0,0,0-150,671.135h-11.211V701.65H-150a12.769,12.769,0,0,0,5.885-1.351,16.108,16.108,0,0,0,4.656-3.473,16.42,16.42,0,0,0,3.1-4.839,14.99,14.99,0,0,0,1.109-5.577A14.821,14.821,0,0,0-136.45,680.652ZM-150,695.287h-3.938V677.5H-150a6.223,6.223,0,0,1,2.809.7,9.875,9.875,0,0,1,2.4,1.978,11.927,11.927,0,0,1,1.683,2.923,10.363,10.363,0,0,1,.584,3.313,9.249,9.249,0,0,1-.608,3.289,10.529,10.529,0,0,1-1.657,2.869,8.462,8.462,0,0,1-2.424,2.017A5.771,5.771,0,0,1-150,695.287Z" transform="translate(0 -0.085)" fill="#fff"/>
    <path id="패스_2" data-name="패스 2" d="M100.623,671.1H95.337l-.038-.062v.063H90.436V701.62H97.99v-4.293h9.151l2.659,4.293h9.339ZM97.99,690.928V680.722l6.139,10.206Z" transform="translate(-83.014 -0.054)" fill="#fff"/>
    <path id="패스_3" data-name="패스 3" d="M-105.006,671.1v-.062l-.038.063h-5.286l-18.516,30.516h9.339l2.659-4.293h9.151v4.293h7.554V671.1Zm-8.83,19.825,6.139-10.206v10.206Z" transform="translate(-10.59 -0.054)" fill="#fff"/>
    <path id="패스_4" data-name="패스 4" d="M-56.59,680.652a18.116,18.116,0,0,0-3.173-4.858,16.984,16.984,0,0,0-4.662-3.392,13.509,13.509,0,0,0-5.713-1.268H-81.35V701.65h11.212a12.767,12.767,0,0,0,5.884-1.351,16.1,16.1,0,0,0,4.657-3.473,16.4,16.4,0,0,0,3.095-4.839,14.976,14.976,0,0,0,1.109-5.577A14.82,14.82,0,0,0-56.59,680.652Zm-13.548,14.635h-3.938V677.5h3.938a6.22,6.22,0,0,1,2.808.7,9.874,9.874,0,0,1,2.4,1.978,11.908,11.908,0,0,1,1.683,2.923,10.379,10.379,0,0,1,.583,3.313,9.235,9.235,0,0,1-.608,3.289,10.511,10.511,0,0,1-1.657,2.869,8.444,8.444,0,0,1-2.424,2.017A5.77,5.77,0,0,1-70.138,695.287Z" transform="translate(-26.341 -0.085)" fill="#fff"/>
    <path id="패스_5" data-name="패스 5" d="M-11.2,680.355a16.874,16.874,0,0,0-3.1-4.909,15.8,15.8,0,0,0-4.583-3.342,13.762,13.762,0,0,0-5.7-1.228,13.783,13.783,0,0,0-5.945,1.278,14.294,14.294,0,0,0-4.574,3.423,15.261,15.261,0,0,0-2.958,4.97,16.72,16.72,0,0,0-1.024,5.815,15.879,15.879,0,0,0,1.059,5.884,14.582,14.582,0,0,0,3.014,4.956,14.092,14.092,0,0,0,4.6,3.443,13.525,13.525,0,0,0,5.828,1.272,13.513,13.513,0,0,0,5.933-1.342,14.084,14.084,0,0,0,4.612-3.528,16.711,16.711,0,0,0,2.928-4.932,16.474,16.474,0,0,0,1.027-5.754A16.644,16.644,0,0,0-11.2,680.355Zm-13.386,15.2a5.978,5.978,0,0,1-2.878-.664,6.381,6.381,0,0,1-2.292-1.839l-.05-.059a7.748,7.748,0,0,1-1.579-2.842l-.024-.07a10.27,10.27,0,0,1-.613-3.716,10.581,10.581,0,0,1,.631-3.767,9.022,9.022,0,0,1,1.6-2.884,7.56,7.56,0,0,1,2.339-1.849,6.391,6.391,0,0,1,2.862-.656,6.208,6.208,0,0,1,2.76.639,8.479,8.479,0,0,1,2.364,1.859,11.615,11.615,0,0,1,1.652,2.912,12.248,12.248,0,0,1,.589,3.745,11.886,11.886,0,0,1-.582,3.728,9.652,9.652,0,0,1-1.666,2.937,7.069,7.069,0,0,1-2.357,1.885A5.843,5.843,0,0,1-24.589,695.55Z" transform="translate(-40.286 0)" fill="#fff"/>
    <path id="패스_6" data-name="패스 6" d="M24.518,671.135v15.53l-11.258-15.53H8.109v30.516h7.309V685.626l11.535,16.025h4.873V671.135Z" transform="translate(-55.843 -0.085)" fill="#fff"/>
    <path id="패스_7" data-name="패스 7" d="M72.581,680.652a18.132,18.132,0,0,0-3.173-4.858,16.984,16.984,0,0,0-4.662-3.392,13.509,13.509,0,0,0-5.714-1.268H47.821V701.65H59.032a12.769,12.769,0,0,0,5.885-1.351,16.111,16.111,0,0,0,4.657-3.473,16.4,16.4,0,0,0,3.095-4.839,14.976,14.976,0,0,0,1.109-5.577A14.82,14.82,0,0,0,72.581,680.652ZM59.032,695.287H55.1V677.5h3.937a6.221,6.221,0,0,1,2.809.7,9.875,9.875,0,0,1,2.4,1.978A11.908,11.908,0,0,1,65.92,683.1a10.38,10.38,0,0,1,.583,3.313A9.234,9.234,0,0,1,65.9,689.7a10.511,10.511,0,0,1-1.657,2.869,8.453,8.453,0,0,1-2.424,2.017A5.771,5.771,0,0,1,59.032,695.287Z" transform="translate(-68.947 -0.085)" fill="#fff"/>
  </g>
</svg>
