<svg xmlns="http://www.w3.org/2000/svg" width="158.667" height="24.959" viewBox="0 0 158.667 24.959">
  <g id="그룹_15068" data-name="그룹 15068" transform="translate(161.209 -670.875)">
    <path id="패스_1" data-name="패스 1" d="M-141.3,678.787a14.565,14.565,0,0,0-2.551-3.906,13.664,13.664,0,0,0-3.748-2.727,10.863,10.863,0,0,0-4.594-1.019h-9.015v24.536h9.015a10.267,10.267,0,0,0,4.732-1.086,12.951,12.951,0,0,0,3.744-2.793,13.2,13.2,0,0,0,2.489-3.891,12.053,12.053,0,0,0,.891-4.484A11.917,11.917,0,0,0-141.3,678.787Zm-10.893,11.768h-3.166v-14.3h3.166a5,5,0,0,1,2.259.561,7.94,7.94,0,0,1,1.926,1.59,9.591,9.591,0,0,1,1.353,2.35,8.333,8.333,0,0,1,.47,2.664,7.437,7.437,0,0,1-.489,2.645,8.466,8.466,0,0,1-1.332,2.307,6.8,6.8,0,0,1-1.949,1.622A4.64,4.64,0,0,1-152.194,690.555Z" transform="translate(0 -0.119)" fill="#fff"/>
    <path id="패스_2" data-name="패스 2" d="M98.627,671.091h-4.25l-.03-.05v.05h-3.91v24.537H96.51v-3.452h7.358l2.138,3.452h7.509Zm-2.117,15.94v-8.206l4.936,8.206Z" transform="translate(-116.056 -0.076)" fill="#fff"/>
    <path id="패스_3" data-name="패스 3" d="M-109.678,671.091v-.05l-.03.05h-4.25l-14.888,24.537h7.509l2.138-3.452h7.358v3.452h6.074V671.091Zm-7.1,15.94,4.936-8.206v8.206Z" transform="translate(-14.856 -0.076)" fill="#fff"/>
    <path id="패스_4" data-name="패스 4" d="M-61.442,678.787a14.566,14.566,0,0,0-2.551-3.906,13.656,13.656,0,0,0-3.748-2.727,10.862,10.862,0,0,0-4.594-1.019H-81.35v24.536h9.015a10.265,10.265,0,0,0,4.731-1.086,12.947,12.947,0,0,0,3.745-2.793,13.19,13.19,0,0,0,2.488-3.891,12.042,12.042,0,0,0,.892-4.484A11.916,11.916,0,0,0-61.442,678.787Zm-10.893,11.768H-75.5v-14.3h3.166a5,5,0,0,1,2.258.561,7.94,7.94,0,0,1,1.926,1.59,9.575,9.575,0,0,1,1.353,2.35,8.346,8.346,0,0,1,.469,2.664,7.425,7.425,0,0,1-.489,2.645,8.451,8.451,0,0,1-1.332,2.307,6.79,6.79,0,0,1-1.949,1.622A4.639,4.639,0,0,1-72.335,690.555Z" transform="translate(-36.828 -0.119)" fill="#fff"/>
    <path id="패스_5" data-name="패스 5" d="M-16.668,678.5a13.568,13.568,0,0,0-2.494-3.948,12.7,12.7,0,0,0-3.685-2.687,11.065,11.065,0,0,0-4.584-.987,11.082,11.082,0,0,0-4.78,1.027,11.493,11.493,0,0,0-3.678,2.752,12.271,12.271,0,0,0-2.378,4,13.444,13.444,0,0,0-.823,4.676,12.768,12.768,0,0,0,.851,4.731,11.725,11.725,0,0,0,2.424,3.985,11.331,11.331,0,0,0,3.7,2.768,10.875,10.875,0,0,0,4.686,1.023,10.865,10.865,0,0,0,4.771-1.079,11.324,11.324,0,0,0,3.708-2.837,13.437,13.437,0,0,0,2.354-3.966,13.246,13.246,0,0,0,.826-4.626A13.382,13.382,0,0,0-16.668,678.5Zm-10.763,12.218a4.806,4.806,0,0,1-2.314-.534,5.13,5.13,0,0,1-1.843-1.479l-.041-.048a6.23,6.23,0,0,1-1.27-2.285l-.019-.056a8.258,8.258,0,0,1-.493-2.988A8.508,8.508,0,0,1-32.9,680.3a7.254,7.254,0,0,1,1.29-2.319,6.08,6.08,0,0,1,1.881-1.487,5.139,5.139,0,0,1,2.3-.527,4.991,4.991,0,0,1,2.219.514,6.818,6.818,0,0,1,1.9,1.495,9.34,9.34,0,0,1,1.329,2.341,9.848,9.848,0,0,1,.474,3.012,9.557,9.557,0,0,1-.468,3,7.761,7.761,0,0,1-1.34,2.361,5.684,5.684,0,0,1-1.9,1.516A4.7,4.7,0,0,1-27.431,690.716Z" transform="translate(-56.321)" fill="#fff"/>
    <path id="패스_6" data-name="패스 6" d="M21.3,671.135v12.487L12.25,671.135H8.109v24.537h5.877V682.786l9.275,12.885H27.18V671.135Z" transform="translate(-78.078 -0.119)" fill="#fff"/>
    <path id="패스_7" data-name="패스 7" d="M67.729,678.787a14.58,14.58,0,0,0-2.551-3.906,13.656,13.656,0,0,0-3.748-2.727,10.863,10.863,0,0,0-4.594-1.019H47.821v24.536h9.015a10.267,10.267,0,0,0,4.732-1.086,12.954,12.954,0,0,0,3.745-2.793A13.189,13.189,0,0,0,67.8,687.9a12.042,12.042,0,0,0,.891-4.484A11.916,11.916,0,0,0,67.729,678.787ZM56.836,690.555H53.67v-14.3h3.166a5,5,0,0,1,2.259.561,7.941,7.941,0,0,1,1.926,1.59,9.576,9.576,0,0,1,1.353,2.35,8.346,8.346,0,0,1,.469,2.664,7.425,7.425,0,0,1-.489,2.645,8.451,8.451,0,0,1-1.332,2.307,6.8,6.8,0,0,1-1.949,1.622A4.64,4.64,0,0,1,56.836,690.555Z" transform="translate(-96.396 -0.119)" fill="#fff"/>
  </g>
</svg>
