<svg xmlns="http://www.w3.org/2000/svg" width="14.685" height="14.685" viewBox="0 0 14.685 14.685">
  <g id="time" transform="translate(-131.827 -419.836)">
    <path id="Icon" d="M7.342,14.685a7.342,7.342,0,1,1,7.342-7.342A7.351,7.351,0,0,1,7.342,14.685ZM7.35,1.468a5.874,5.874,0,1,0,5.874,5.874A5.881,5.881,0,0,0,7.35,1.468ZM10.3,10.2a.541.541,0,0,1-.274-.075L6.976,8.3a.731.731,0,0,1-.36-.632V4.2a.529.529,0,0,1,.529-.529h.044a.529.529,0,0,1,.529.529V7.533l2.842,1.689a.514.514,0,0,1,.245.322.52.52,0,0,1-.062.4A.511.511,0,0,1,10.3,10.2Z" transform="translate(131.826 419.836)" fill="#2b5aac"/>
  </g>
</svg>
