<svg xmlns="http://www.w3.org/2000/svg" width="541" height="243" viewBox="0 0 541 243">
  <g id="dash-img01" transform="translate(-1164.836 5692)">
    <path id="패스_3982" data-name="패스 3982" d="M7.5,0h320a7.5,7.5,0,0,1,0,15H7.5a7.5,7.5,0,0,1,0-15Z" transform="translate(1311.836 -5599)" fill="#f5f5f5"/>
    <path id="패스_3984" data-name="패스 3984" d="M7.5,0h320a7.5,7.5,0,0,1,0,15H7.5a7.5,7.5,0,0,1,0-15Z" transform="translate(1311.836 -5554)" fill="#f5f5f5"/>
    <path id="패스_3986" data-name="패스 3986" d="M7.5,0h320a7.5,7.5,0,0,1,0,15H7.5a7.5,7.5,0,0,1,0-15Z" transform="translate(1311.836 -5509)" fill="#f5f5f5"/>
    <path id="패스_3990" data-name="패스 3990" d="M7.5,0h320a7.5,7.5,0,0,1,0,15H7.5a7.5,7.5,0,0,1,0-15Z" transform="translate(1311.836 -5464)" fill="#f5f5f5"/>
    <path id="패스_3981" data-name="패스 3981" d="M5,0H536a5,5,0,0,1,5,5V55a5,5,0,0,1-5,5H5a5,5,0,0,1-5-5V5A5,5,0,0,1,5,0Z" transform="translate(1164.836 -5692)" fill="#f5f5f5"/>
    <path id="패스_3987" data-name="패스 3987" d="M.88,0h9.5V-1.96H6.7c-.72,0-1.64.06-2.4.14C7.42-4.8,9.68-7.74,9.68-10.58A4.163,4.163,0,0,0,5.24-15,5.776,5.776,0,0,0,.76-12.8l1.3,1.28a3.992,3.992,0,0,1,2.9-1.64,2.4,2.4,0,0,1,2.5,2.7c0,2.42-2.24,5.28-6.58,9.12ZM17.1.26c2.88,0,4.76-2.56,4.76-7.68,0-5.08-1.88-7.58-4.76-7.58-2.9,0-4.76,2.48-4.76,7.58C12.34-2.3,14.2.26,17.1.26Zm0-1.82c-1.5,0-2.56-1.6-2.56-5.86,0-4.22,1.06-5.76,2.56-5.76s2.56,1.54,2.56,5.76C19.66-3.16,18.6-1.56,17.1-1.56ZM23.68,0h9.5V-1.96H29.5c-.72,0-1.64.06-2.4.14,3.12-2.98,5.38-5.92,5.38-8.76A4.163,4.163,0,0,0,28.04-15a5.776,5.776,0,0,0-4.48,2.2l1.3,1.28a3.992,3.992,0,0,1,2.9-1.64,2.4,2.4,0,0,1,2.5,2.7c0,2.42-2.24,5.28-6.58,9.12ZM36.92-5.74l2.9-4.44c.42-.76.82-1.52,1.18-2.26h.08c-.04.8-.12,2.04-.12,2.84v3.86Zm8.08,0H43.12v-8.98H40.46L34.6-5.5v1.54h6.36V0h2.16V-3.96H45ZM59.52-3.18h2.06V-16.52H59.52v2.2h-4.8v1.64h4.8v1.78h-4.8v1.64h4.8Zm-2.8-4.84a40.93,40.93,0,0,1-7.02.6v-7.86H47.64v9.56h1.4a42.668,42.668,0,0,0,7.88-.62ZM51.92-.48V-4.36H49.86V1.2H62.04V-.48ZM70.22,0h8.4V-1.9H75.74V-14.72H74a9.042,9.042,0,0,1-3.2,1.12v1.46h2.64V-1.9H70.22ZM85.6.26c2.88,0,4.76-2.56,4.76-7.68,0-5.08-1.88-7.58-4.76-7.58-2.9,0-4.76,2.48-4.76,7.58C80.84-2.3,82.7.26,85.6.26Zm0-1.82c-1.5,0-2.56-1.6-2.56-5.86,0-4.22,1.06-5.76,2.56-5.76s2.56,1.54,2.56,5.76C88.16-3.16,87.1-1.56,85.6-1.56Zm16.22-6.48v1.28h3.4v.78h2.06V-16.52h-2.06v8.48Zm-3.74-6.78c1.54,0,2.54.48,2.54,1.32s-1,1.32-2.54,1.32c-1.56,0-2.56-.48-2.56-1.32S96.52-14.82,98.08-14.82Zm0,4.02c2.68,0,4.48-1.04,4.48-2.7s-1.8-2.7-4.48-2.7c-2.7,0-4.5,1.04-4.5,2.7S95.38-10.8,98.08-10.8ZM96.94-5.92h2.08V-8.58c1.68-.08,3.4-.22,5.06-.46l-.14-1.3c-3.82.4-8.18.42-11.66.42l.24,1.48c1.36,0,2.86,0,4.42-.06Zm.08,5.84V-1.4h10.26V-5.34H94.94v1.42h10.3v1.2H94.98v4.1H107.8V-.08Zm22.54.34c2.7,0,4.92-1.56,4.92-4.22a3.727,3.727,0,0,0-3.04-3.68v-.1a3.558,3.558,0,0,0,2.54-3.46c0-2.44-1.86-3.8-4.5-3.8a6.2,6.2,0,0,0-4.22,1.78l1.2,1.44a4.311,4.311,0,0,1,2.94-1.4,2.06,2.06,0,0,1,2.26,2.14c0,1.48-.96,2.58-3.86,2.58v1.7c3.32,0,4.36,1.06,4.36,2.7,0,1.52-1.14,2.44-2.8,2.44a4.757,4.757,0,0,1-3.48-1.62l-1.12,1.48A6.11,6.11,0,0,0,119.56.26ZM127.32,0h8.4V-1.9h-2.88V-14.72H131.1a9.042,9.042,0,0,1-3.2,1.12v1.46h2.64V-1.9h-3.22ZM152.9-16.54h-2.06v9.18h2.06Zm-12.54,4.68a2.455,2.455,0,0,1,2.72-2.38,2.48,2.48,0,0,1,2.76,2.38,2.48,2.48,0,0,1-2.76,2.38A2.455,2.455,0,0,1,140.36-11.86Zm7.48,0c0-2.38-2.02-4.08-4.76-4.08-2.72,0-4.72,1.7-4.72,4.08s2,4.06,4.72,4.06C145.82-7.8,147.84-9.48,147.84-11.86ZM143.12-.3V-1.9h9.78V-6.54H141.06v1.62h9.8v1.5H141.1V1.32h12.34V-.3Z" transform="translate(1357.836 -5655)" fill="#0d1729"/>
    <path id="패스_3996" data-name="패스 3996" d="M11.13-11.55H9.688v9.24H11.13Zm-2.758,6.1A4.388,4.388,0,0,1,5.32-9.6v-1.26H3.85V-9.6A4.647,4.647,0,0,1,.756-5.222L1.5-4.06A5.419,5.419,0,0,0,4.606-7.182,5.13,5.13,0,0,0,7.63-4.3ZM4.326-.336V-3.178H2.87V.84h8.624V-.336Zm20.706-5h-1.89a23.876,23.876,0,0,0,.364-4.592v-.882H14.994v1.176h7.084a20.946,20.946,0,0,1-.392,4.3H13.594v1.19H16.38V1.092h1.428V-4.144H20.72V1.092h1.442V-4.144h2.87ZM31.01-7.98A1.567,1.567,0,0,1,32.578-9.7a1.58,1.58,0,0,1,1.6,1.722,1.587,1.587,0,0,1-1.6,1.722A1.574,1.574,0,0,1,31.01-7.98Zm4.466,0a2.779,2.779,0,0,0-2.9-2.9,2.764,2.764,0,0,0-2.87,2.9,2.764,2.764,0,0,0,2.87,2.9A2.779,2.779,0,0,0,35.476-7.98Zm3.43,7.742H33.334V-1.652h5.572Zm0-2.534H33.334V-4.13H31.906V.924H40.32V-4.13H38.906Zm.042-8.778v2.772h-1.33v-2.548H36.26V-4.76h1.358V-7.6h1.33v2.926H40.32V-11.55Zm7.322,1.316v1.176h4.424c-.294,2.912-1.96,5.138-5.054,6.72l.8,1.106a9.512,9.512,0,0,0,5.7-9ZM57.358-6.58H55.44v-5H54V1.064H55.44v-6.44h1.918Zm10.15-4.984v6.79H68.95v-6.79ZM60.69-4.186V.924h8.26v-5.11H67.522v1.4h-5.4v-1.4Zm1.428,2.52h5.4V-.238h-5.4Zm.014-9.324c-1.932,0-3.36,1.2-3.36,2.94s1.428,2.94,3.36,2.94a3.043,3.043,0,0,0,3.346-2.94A3.043,3.043,0,0,0,62.132-10.99Zm0,1.19a1.77,1.77,0,0,1,1.946,1.75A1.763,1.763,0,0,1,62.132-6.3a1.755,1.755,0,0,1-1.946-1.75A1.763,1.763,0,0,1,62.132-9.8ZM82.348-6.9C79.8-7.266,77.9-8.848,77.9-10.486v-.672H76.37v.672c0,1.666-1.876,3.22-4.452,3.584l.56,1.162A6.357,6.357,0,0,0,77.14-8.6,6.4,6.4,0,0,0,81.788-5.74Zm.49,2.352H71.414v1.176H76.37V1.092h1.442V-3.374h5.026Z" transform="translate(1179.836 -5588)" fill="#151917"/>
    <path id="패스_3983" data-name="패스 3983" d="M-14.756,0h5.88V-1.33h-2.016V-10.3H-12.11a6.33,6.33,0,0,1-2.24.784V-8.5H-12.5V-1.33h-2.254Zm7.392,0h6.65V-1.372H-3.29c-.5,0-1.148.042-1.68.1C-2.786-3.36-1.2-5.418-1.2-7.406A2.914,2.914,0,0,0-4.312-10.5,4.043,4.043,0,0,0-7.448-8.96l.91.9a2.8,2.8,0,0,1,2.03-1.148,1.68,1.68,0,0,1,1.75,1.89c0,1.694-1.568,3.7-4.606,6.384Z" transform="translate(1688.836 -5588)" fill="#0d1729"/>
    <path id="패스_3985" data-name="패스 3985" d="M-3.976.182c1.988,0,3.332-1.176,3.332-2.7A3.028,3.028,0,0,0-2.38-5.25v-.07A3.2,3.2,0,0,0-1.022-7.742a2.661,2.661,0,0,0-2.912-2.73,2.684,2.684,0,0,0-2.94,2.66A2.913,2.913,0,0,0-5.488-5.4v.07A3.156,3.156,0,0,0-7.336-2.562C-7.336-.966-5.908.182-3.976.182ZM-3.3-5.726c-1.148-.448-2.128-.966-2.128-2.086a1.411,1.411,0,0,1,1.47-1.5A1.529,1.529,0,0,1-2.38-7.644,2.608,2.608,0,0,1-3.3-5.726ZM-3.948-.98a1.8,1.8,0,0,1-1.96-1.736A2.629,2.629,0,0,1-4.7-4.872c1.4.574,2.534,1.05,2.534,2.31A1.594,1.594,0,0,1-3.948-.98Z" transform="translate(1688.836 -5543)" fill="#0d1729"/>
    <path id="패스_3988" data-name="패스 3988" d="M-14.056-4.018l2.03-3.108c.294-.532.574-1.064.826-1.582h.056c-.028.56-.084,1.428-.084,1.988v2.7Zm5.656,0H-9.716V-10.3h-1.862l-4.1,6.454v1.078h4.452V0h1.512V-2.772H-8.4Zm4.424,4.2c1.988,0,3.332-1.176,3.332-2.7A3.028,3.028,0,0,0-2.38-5.25v-.07A3.2,3.2,0,0,0-1.022-7.742a2.661,2.661,0,0,0-2.912-2.73,2.684,2.684,0,0,0-2.94,2.66A2.913,2.913,0,0,0-5.488-5.4v.07A3.156,3.156,0,0,0-7.336-2.562C-7.336-.966-5.908.182-3.976.182ZM-3.3-5.726c-1.148-.448-2.128-.966-2.128-2.086a1.411,1.411,0,0,1,1.47-1.5A1.529,1.529,0,0,1-2.38-7.644,2.608,2.608,0,0,1-3.3-5.726ZM-3.948-.98a1.8,1.8,0,0,1-1.96-1.736A2.629,2.629,0,0,1-4.7-4.872c1.4.574,2.534,1.05,2.534,2.31A1.594,1.594,0,0,1-3.948-.98Z" transform="translate(1688.836 -5498)" fill="#0d1729"/>
    <path id="패스_3991" data-name="패스 3991" d="M-15.344,0h6.65V-1.372H-11.27c-.5,0-1.148.042-1.68.1,2.184-2.086,3.766-4.144,3.766-6.132A2.914,2.914,0,0,0-12.292-10.5a4.043,4.043,0,0,0-3.136,1.54l.91.9a2.8,2.8,0,0,1,2.03-1.148,1.68,1.68,0,0,1,1.75,1.89c0,1.694-1.568,3.7-4.606,6.384Zm9.268-4.018,2.03-3.108c.294-.532.574-1.064.826-1.582h.056c-.028.56-.084,1.428-.084,1.988v2.7Zm5.656,0H-1.736V-10.3H-3.6L-7.7-3.85v1.078h4.452V0h1.512V-2.772H-.42Z" transform="translate(1688.836 -5452)" fill="#0d1729"/>
    <path id="패스_3995" data-name="패스 3995" d="M11.13-11.55H9.688v9.24H11.13Zm-2.758,6.1A4.388,4.388,0,0,1,5.32-9.6v-1.26H3.85V-9.6A4.647,4.647,0,0,1,.756-5.222L1.5-4.06A5.419,5.419,0,0,0,4.606-7.182,5.13,5.13,0,0,0,7.63-4.3ZM4.326-.336V-3.178H2.87V.84h8.624V-.336Zm20.706-5h-1.89a23.876,23.876,0,0,0,.364-4.592v-.882H14.994v1.176h7.084a20.946,20.946,0,0,1-.392,4.3H13.594v1.19H16.38V1.092h1.428V-4.144H20.72V1.092h1.442V-4.144h2.87Zm4.592,3.64V-.5H41.076v-1.19Zm1.288-9v6.664H39.76V-10.7H38.332v2.212H32.34V-10.7Zm1.428,3.36h5.992v2.142H32.34ZM44.674-5.754h4.41v-4.69H43.19v1.176h4.438v2.352h-4.41V-1.9H44.3a34.815,34.815,0,0,0,6.286-.448l-.154-1.176a36.2,36.2,0,0,1-5.754.434Zm6.8-5.838v12.7h1.456v-12.7Zm14.056,3.57H58.24v-2.016h7.182V-11.2h-8.61v4.34h8.722Zm-7.364,5.8h5.852v1.96H58.17ZM56.742.9H65.45v-4.27H56.742ZM55.4-5.754v1.162H66.822V-5.754Zm16.632-4.48v1.176h4.424c-.294,2.912-1.96,5.138-5.054,6.72l.8,1.106a9.512,9.512,0,0,0,5.7-9ZM83.118-6.58H81.2v-5H79.758V1.064H81.2v-6.44h1.918Zm10.15-4.984v6.79H94.71v-6.79ZM86.45-4.186V.924h8.26v-5.11H93.282v1.4h-5.4v-1.4Zm1.428,2.52h5.4V-.238h-5.4Zm.014-9.324c-1.932,0-3.36,1.2-3.36,2.94s1.428,2.94,3.36,2.94a3.043,3.043,0,0,0,3.346-2.94A3.043,3.043,0,0,0,87.892-10.99Zm0,1.19a1.77,1.77,0,0,1,1.946,1.75A1.763,1.763,0,0,1,87.892-6.3a1.755,1.755,0,0,1-1.946-1.75A1.763,1.763,0,0,1,87.892-9.8Zm20.216,2.9c-2.548-.364-4.452-1.946-4.452-3.584v-.672H102.13v.672c0,1.666-1.876,3.22-4.452,3.584l.56,1.162A6.357,6.357,0,0,0,102.9-8.6a6.4,6.4,0,0,0,4.648,2.856Zm.49,2.352H97.174v1.176h4.956V1.092h1.442V-3.374H108.6Z" transform="translate(1179.836 -5543)" fill="#151917"/>
    <path id="패스_3997" data-name="패스 3997" d="M2.1-7.98A1.567,1.567,0,0,1,3.668-9.7a1.58,1.58,0,0,1,1.6,1.722,1.587,1.587,0,0,1-1.6,1.722A1.574,1.574,0,0,1,2.1-7.98Zm4.466,0a2.779,2.779,0,0,0-2.9-2.9A2.764,2.764,0,0,0,.8-7.98a2.764,2.764,0,0,0,2.87,2.9A2.779,2.779,0,0,0,6.566-7.98ZM10-.238H4.424V-1.652H10Zm0-2.534H4.424V-4.13H3V.924H11.41V-4.13H10Zm.042-8.778v2.772H8.708v-2.548H7.35V-4.76H8.708V-7.6h1.33v2.926H11.41V-11.55ZM21.714-6.034H18.62V-7.882h3.094Zm1.428-4.732H21.714v1.75H18.62v-1.75H17.178v5.88h5.964ZM22.54-.042c-1.764,0-2.786-.448-2.786-1.274s1.022-1.26,2.786-1.26,2.786.448,2.786,1.26S24.3-.042,22.54-.042Zm0-3.682c-2.6,0-4.214.91-4.214,2.408s1.61,2.408,4.214,2.408,4.214-.9,4.214-2.408S25.144-3.724,22.54-3.724Zm4.074-4.76v-3.08H25.172v7.546h1.442V-7.294h1.792v-1.19Zm11.564.9h-5.7V-9.856h5.7ZM39.592-11H31.066V-6.44h8.526Zm-7.14,8.19H31.01V.84H39.8V-.336h-7.35ZM29.61-5.194v1.162h5.124v2.366h1.442V-4.032h4.9V-5.194ZM53.438-6.9c-2.548-.364-4.452-1.946-4.452-3.584v-.672H47.46v.672c0,1.666-1.876,3.22-4.452,3.584l.56,1.162A6.357,6.357,0,0,0,48.23-8.6,6.4,6.4,0,0,0,52.878-5.74Zm.49,2.352H42.5v1.176H47.46V1.092H48.9V-3.374h5.026Z" transform="translate(1179.836 -5498)" fill="#151917"/>
    <path id="패스_3998" data-name="패스 3998" d="M4.956-9.268H7.868v3.892H4.956ZM7.126-1.61v-2.6h4V-5.376H9.3V-9.268h1.862V-10.43H1.652v1.162H3.514v3.892H1.694v1.162h3.99v2.6H.7V-.42H12.18V-1.61Zm17.43-3.78c-2.492-.448-4.522-2.394-4.522-4.41v-.952H18.508V-9.8c0,2-2.03,3.948-4.522,4.41L14.6-4.2a6.62,6.62,0,0,0,4.662-3.472A6.62,6.62,0,0,0,23.926-4.2ZM13.594-1.736v1.19H25.046v-1.19Zm23.058-3.15H29.358V-6.622h6.916V-7.756H29.358V-9.38h7.2v-1.162H27.888v6.818h8.764ZM26.474-1.652V-.476H37.94V-1.652ZM50.288-6.9c-2.548-.364-4.452-1.946-4.452-3.584v-.672H44.31v.672c0,1.666-1.876,3.22-4.452,3.584l.56,1.162A6.357,6.357,0,0,0,45.08-8.6,6.4,6.4,0,0,0,49.728-5.74Zm.49,2.352H39.354v1.176H44.31V1.092h1.442V-3.374h5.026Z" transform="translate(1179.836 -5452)" fill="#151917"/>
    <path id="Shape" d="M1.726.287A1.033,1.033,0,0,0,.3.287a.96.96,0,0,0,0,1.387L7.035,8.213a1.033,1.033,0,0,0,1.43,0L15.2,1.674a.96.96,0,0,0,0-1.387,1.033,1.033,0,0,0-1.43,0L7.75,6.132Z" transform="translate(1670.836 -5666)" fill="#3c557c" stroke="#3c557c" stroke-width="1"/>
    <path id="패스_3993" data-name="패스 3993" d="M7.5,0h55a7.5,7.5,0,0,1,0,15H7.5a7.5,7.5,0,0,1,0-15Z" transform="translate(1311.836 -5599)" fill="#c99eef"/>
    <path id="패스_3994" data-name="패스 3994" d="M7.5,0h41a7.5,7.5,0,0,1,0,15H7.5a7.5,7.5,0,0,1,0-15Z" transform="translate(1311.836 -5554)" fill="#73c1e9"/>
    <path id="패스_3989" data-name="패스 3989" d="M7.5,0h221a7.5,7.5,0,0,1,0,15H7.5a7.5,7.5,0,0,1,0-15Z" transform="translate(1311.836 -5509)" fill="#f5cc55"/>
    <path id="패스_3992" data-name="패스 3992" d="M7.5,0h125a7.5,7.5,0,0,1,0,15H7.5a7.5,7.5,0,0,1,0-15Z" transform="translate(1311.836 -5464)" fill="#759fe8"/>
    <path id="패스_3980" data-name="패스 3980" d="M4275.363,1234.429h-2.246v-1.964a.435.435,0,1,0-.87,0v2.4a.434.434,0,0,0,.435.434h2.68a.434.434,0,1,0,0-.869Zm2.52.869h2.681a.435.435,0,0,0,0-.869h-2.246v-1.964a.435.435,0,0,0-.869,0v2.4a.435.435,0,0,0,.435.434Zm7.88-.869h-2.246v-1.964a.435.435,0,1,0-.869,0v2.4a.434.434,0,0,0,.435.434h2.68a.434.434,0,1,0,0-.869Zm-10.4,3.792h-2.246v-1.964a.435.435,0,1,0-.87,0v2.4a.435.435,0,0,0,.435.434h2.681a.434.434,0,0,0,0-.869Zm5.2,0h-2.246v-1.964a.435.435,0,0,0-.87,0v2.4a.435.435,0,0,0,.435.435h2.681a.435.435,0,1,0,0-.869Zm2.52-2.4a.434.434,0,0,0-.434.435v2.4a.434.434,0,0,0,.435.434h2.68a.434.434,0,1,0,0-.869h-2.245v-1.964A.435.435,0,0,0,4283.083,1235.82Zm-7.72,6.191h-2.246v-1.964a.435.435,0,0,0-.87,0v2.4a.435.435,0,0,0,.435.434h2.68a.434.434,0,1,0,0-.869Zm5.2,0h-2.247v-1.964a.435.435,0,1,0-.869,0v2.4a.436.436,0,0,0,.435.435h2.681a.435.435,0,0,0,0-.869Zm5.2,0h-2.245v-1.964a.435.435,0,0,0-.869,0v2.4a.433.433,0,0,0,.435.434h2.68a.434.434,0,1,0,0-.869Zm3.092-16.744h-2.412a.437.437,0,0,0-.435.434v1.4a.593.593,0,0,1-1.186,0v-1.4a.434.434,0,0,0-.435-.434h-10.72a.434.434,0,0,0-.434.434v1.4a.593.593,0,0,1-1.187,0v-1.4a.434.434,0,0,0-.434-.434H4269.2a1.674,1.674,0,0,0-1.673,1.673v2.478h0v14.865a1.674,1.674,0,0,0,1.673,1.674h19.653a1.674,1.674,0,0,0,1.673-1.674v-14.865h0v-2.478A1.673,1.673,0,0,0,4288.854,1225.267Zm0,19.821H4269.2a.805.805,0,0,1-.8-.8v-14.43h21.261v14.43A.805.805,0,0,1,4288.854,1245.087Zm.8-16.1H4268.4v-2.043a.806.806,0,0,1,.8-.8h1.977v.967a1.462,1.462,0,0,0,2.925,0v-.967h9.851v.967a1.462,1.462,0,0,0,2.925,0v-.968h1.977a.806.806,0,0,1,.8.8Zm-17.067-4.05a.435.435,0,0,0,.435-.435V1222.9a.435.435,0,1,0-.869,0v1.594A.435.435,0,0,0,4272.591,1224.932Zm12.873,0a.435.435,0,0,0,.434-.435V1222.9a.435.435,0,1,0-.869,0v1.594A.435.435,0,0,0,4285.464,1224.932Z" transform="translate(-3083.192 -6897.213)" fill="#272b29"/>
  </g>
</svg>
