<svg xmlns="http://www.w3.org/2000/svg" xmlns:xlink="http://www.w3.org/1999/xlink" width="517.377" height="188.517" viewBox="0 0 517.377 188.517">
  <defs>
    <linearGradient id="linear-gradient" x1="0.5" x2="0.5" y2="1" gradientUnits="objectBoundingBox">
      <stop offset="0" stop-color="#811afb"/>
      <stop offset="1" stop-color="#fff" stop-opacity="0"/>
    </linearGradient>
  </defs>
  <g id="dash-img03_2" transform="translate(-1323.32 3699.5)">
    <g id="그룹_3690" data-name="그룹 3690" transform="translate(1315 -3704.933)">
      <path id="패스_4024" data-name="패스 4024" d="M-11.956.182c1.988,0,3.332-1.176,3.332-2.7A3.028,3.028,0,0,0-10.36-5.25v-.07A3.2,3.2,0,0,0-9-7.742a2.661,2.661,0,0,0-2.912-2.73,2.684,2.684,0,0,0-2.94,2.66A2.913,2.913,0,0,0-13.468-5.4v.07a3.156,3.156,0,0,0-1.848,2.772C-15.316-.966-13.888.182-11.956.182Zm.672-5.908c-1.148-.448-2.128-.966-2.128-2.086a1.411,1.411,0,0,1,1.47-1.5A1.529,1.529,0,0,1-10.36-7.644,2.608,2.608,0,0,1-11.284-5.726ZM-11.928-.98a1.8,1.8,0,0,1-1.96-1.736,2.629,2.629,0,0,1,1.2-2.156c1.4.574,2.534,1.05,2.534,2.31A1.594,1.594,0,0,1-11.928-.98ZM-3.99.182C-1.974.182-.658-1.61-.658-5.194-.658-8.75-1.974-10.5-3.99-10.5S-7.322-8.764-7.322-5.194-6.02.182-3.99.182Zm0-1.274c-1.05,0-1.792-1.12-1.792-4.1,0-2.954.742-4.032,1.792-4.032S-2.2-8.148-2.2-5.194C-2.2-2.212-2.94-1.092-3.99-1.092Z" transform="translate(24 15.933)" fill="#979797"/>
      <path id="패스_4023" data-name="패스 4023" d="M-11.676-1.05c-1.106,0-1.848-.966-2.016-3.01a2.4,2.4,0,0,1,1.918-1.2c1.106,0,1.694.742,1.694,2.072S-10.78-1.05-11.676-1.05ZM-8.75-9.394A3.46,3.46,0,0,0-11.326-10.5c-2.03,0-3.892,1.582-3.892,5.544,0,3.5,1.6,5.138,3.556,5.138a3.14,3.14,0,0,0,3.08-3.374c0-2.184-1.162-3.248-2.9-3.248a3.1,3.1,0,0,0-2.24,1.19c.07-2.94,1.162-3.934,2.478-3.934a2.214,2.214,0,0,1,1.61.77ZM-3.99.182C-1.974.182-.658-1.61-.658-5.194-.658-8.75-1.974-10.5-3.99-10.5S-7.322-8.764-7.322-5.194-6.02.182-3.99.182Zm0-1.274c-1.05,0-1.792-1.12-1.792-4.1,0-2.954.742-4.032,1.792-4.032S-2.2-8.148-2.2-5.194C-2.2-2.212-2.94-1.092-3.99-1.092Z" transform="translate(24 52.933)" fill="#979797"/>
      <path id="패스_4022" data-name="패스 4022" d="M-14.056-4.018l2.03-3.108c.294-.532.574-1.064.826-1.582h.056c-.028.56-.084,1.428-.084,1.988v2.7Zm5.656,0H-9.716V-10.3h-1.862l-4.1,6.454v1.078h4.452V0h1.512V-2.772H-8.4Zm4.41,4.2C-1.974.182-.658-1.61-.658-5.194-.658-8.75-1.974-10.5-3.99-10.5S-7.322-8.764-7.322-5.194-6.02.182-3.99.182Zm0-1.274c-1.05,0-1.792-1.12-1.792-4.1,0-2.954.742-4.032,1.792-4.032S-2.2-8.148-2.2-5.194C-2.2-2.212-2.94-1.092-3.99-1.092Z" transform="translate(24 88.933)" fill="#979797"/>
      <path id="패스_4021" data-name="패스 4021" d="M-15.344,0h6.65V-1.372H-11.27c-.5,0-1.148.042-1.68.1,2.184-2.086,3.766-4.144,3.766-6.132A2.914,2.914,0,0,0-12.292-10.5a4.043,4.043,0,0,0-3.136,1.54l.91.9a2.8,2.8,0,0,1,2.03-1.148,1.68,1.68,0,0,1,1.75,1.89c0,1.694-1.568,3.7-4.606,6.384ZM-3.99.182C-1.974.182-.658-1.61-.658-5.194-.658-8.75-1.974-10.5-3.99-10.5S-7.322-8.764-7.322-5.194-6.02.182-3.99.182Zm0-1.274c-1.05,0-1.792-1.12-1.792-4.1,0-2.954.742-4.032,1.792-4.032S-2.2-8.148-2.2-5.194C-2.2-2.212-2.94-1.092-3.99-1.092Z" transform="translate(24 125.933)" fill="#979797"/>
      <path id="패스_4020" data-name="패스 4020" d="M-3.99.182C-1.974.182-.658-1.61-.658-5.194-.658-8.75-1.974-10.5-3.99-10.5S-7.322-8.764-7.322-5.194-6.02.182-3.99.182Zm0-1.274c-1.05,0-1.792-1.12-1.792-4.1,0-2.954.742-4.032,1.792-4.032S-2.2-8.148-2.2-5.194C-2.2-2.212-2.94-1.092-3.99-1.092Z" transform="translate(24 159.933)" fill="#979797"/>
      <path id="패스_4019" data-name="패스 4019" d="M-25.221,0h5.88V-1.33h-2.016V-10.3h-1.218a6.33,6.33,0,0,1-2.24.784V-8.5h1.848V-1.33h-2.254Zm10.766.182c2.016,0,3.332-1.792,3.332-5.376,0-3.556-1.316-5.306-3.332-5.306s-3.332,1.736-3.332,5.306S-16.485.182-14.455.182Zm0-1.274c-1.05,0-1.792-1.12-1.792-4.1,0-2.954.742-4.032,1.792-4.032s1.792,1.078,1.792,4.032C-12.663-2.212-13.405-1.092-14.455-1.092ZM-3.1-5.628v.9h2.38v.546H.721v-7.378H-.721v5.936Zm-2.618-4.746c1.078,0,1.778.336,1.778.924s-.7.924-1.778.924-1.792-.336-1.792-.924S-6.811-10.374-5.719-10.374Zm0,2.814c1.876,0,3.136-.728,3.136-1.89s-1.26-1.89-3.136-1.89-3.15.728-3.15,1.89S-7.609-7.56-5.719-7.56Zm-.8,3.416h1.456V-6.006c1.176-.056,2.38-.154,3.542-.322l-.1-.91c-2.674.28-5.726.294-8.162.294l.168,1.036c.952,0,2,0,3.094-.042Zm.056,4.088V-.98H.721V-3.738H-7.917v.994h7.21v.84H-7.889V.966H1.085V-.056ZM6.769,0h5.88V-1.33H10.633V-10.3H9.415a6.33,6.33,0,0,1-2.24.784V-8.5H9.023V-1.33H6.769Zm8.638-5.376A6.126,6.126,0,0,0,19.971-8.12a6.155,6.155,0,0,0,4.578,2.744l.518-1.134c-2.408-.322-4.186-1.708-4.27-3.178h3.822V-10.85h-9.31v1.162h3.85c-.084,1.47-1.862,2.856-4.27,3.178Zm10.29.924H14.259V-3.29h4.956V1.092h1.442V-3.29h5.026Z" transform="translate(58 187.933)" fill="#979797"/>
      <path id="패스_4018" data-name="패스 4018" d="M-25.221,0h5.88V-1.33h-2.016V-10.3h-1.218a6.33,6.33,0,0,1-2.24.784V-8.5h1.848V-1.33h-2.254Zm10.766.182c2.016,0,3.332-1.792,3.332-5.376,0-3.556-1.316-5.306-3.332-5.306s-3.332,1.736-3.332,5.306S-16.485.182-14.455.182Zm0-1.274c-1.05,0-1.792-1.12-1.792-4.1,0-2.954.742-4.032,1.792-4.032s1.792,1.078,1.792,4.032C-12.663-2.212-13.405-1.092-14.455-1.092ZM-3.1-5.628v.9h2.38v.546H.721v-7.378H-.721v5.936Zm-2.618-4.746c1.078,0,1.778.336,1.778.924s-.7.924-1.778.924-1.792-.336-1.792-.924S-6.811-10.374-5.719-10.374Zm0,2.814c1.876,0,3.136-.728,3.136-1.89s-1.26-1.89-3.136-1.89-3.15.728-3.15,1.89S-7.609-7.56-5.719-7.56Zm-.8,3.416h1.456V-6.006c1.176-.056,2.38-.154,3.542-.322l-.1-.91c-2.674.28-5.726.294-8.162.294l.168,1.036c.952,0,2,0,3.094-.042Zm.056,4.088V-.98H.721V-3.738H-7.917v.994h7.21v.84H-7.889V.966H1.085V-.056ZM6.181,0h6.65V-1.372H10.255c-.5,0-1.148.042-1.68.1,2.184-2.086,3.766-4.144,3.766-6.132A2.914,2.914,0,0,0,9.233-10.5,4.043,4.043,0,0,0,6.1-8.96l.91.9a2.8,2.8,0,0,1,2.03-1.148,1.68,1.68,0,0,1,1.75,1.89c0,1.694-1.568,3.7-4.606,6.384Zm9.226-5.376A6.126,6.126,0,0,0,19.971-8.12a6.155,6.155,0,0,0,4.578,2.744l.518-1.134c-2.408-.322-4.186-1.708-4.27-3.178h3.822V-10.85h-9.31v1.162h3.85c-.084,1.47-1.862,2.856-4.27,3.178Zm10.29.924H14.259V-3.29h4.956V1.092h1.442V-3.29h5.026Z" transform="translate(169 187.933)" fill="#979797"/>
      <path id="패스_4017" data-name="패스 4017" d="M-25.221,0h5.88V-1.33h-2.016V-10.3h-1.218a6.33,6.33,0,0,1-2.24.784V-8.5h1.848V-1.33h-2.254Zm10.766.182c2.016,0,3.332-1.792,3.332-5.376,0-3.556-1.316-5.306-3.332-5.306s-3.332,1.736-3.332,5.306S-16.485.182-14.455.182Zm0-1.274c-1.05,0-1.792-1.12-1.792-4.1,0-2.954.742-4.032,1.792-4.032s1.792,1.078,1.792,4.032C-12.663-2.212-13.405-1.092-14.455-1.092ZM-3.1-5.628v.9h2.38v.546H.721v-7.378H-.721v5.936Zm-2.618-4.746c1.078,0,1.778.336,1.778.924s-.7.924-1.778.924-1.792-.336-1.792-.924S-6.811-10.374-5.719-10.374Zm0,2.814c1.876,0,3.136-.728,3.136-1.89s-1.26-1.89-3.136-1.89-3.15.728-3.15,1.89S-7.609-7.56-5.719-7.56Zm-.8,3.416h1.456V-6.006c1.176-.056,2.38-.154,3.542-.322l-.1-.91c-2.674.28-5.726.294-8.162.294l.168,1.036c.952,0,2,0,3.094-.042Zm.056,4.088V-.98H.721V-3.738H-7.917v.994h7.21v.84H-7.889V.966H1.085V-.056ZM9.317.182c1.89,0,3.444-1.092,3.444-2.954a2.609,2.609,0,0,0-2.128-2.576v-.07A2.491,2.491,0,0,0,12.411-7.84c0-1.708-1.3-2.66-3.15-2.66A4.343,4.343,0,0,0,6.307-9.254l.84,1.008A3.017,3.017,0,0,1,9.2-9.226a1.442,1.442,0,0,1,1.582,1.5c0,1.036-.672,1.806-2.7,1.806v1.19c2.324,0,3.052.742,3.052,1.89a1.73,1.73,0,0,1-1.96,1.708A3.33,3.33,0,0,1,6.741-2.268L5.957-1.232A4.277,4.277,0,0,0,9.317.182Zm6.09-5.558A6.126,6.126,0,0,0,19.971-8.12a6.155,6.155,0,0,0,4.578,2.744l.518-1.134c-2.408-.322-4.186-1.708-4.27-3.178h3.822V-10.85h-9.31v1.162h3.85c-.084,1.47-1.862,2.856-4.27,3.178Zm10.29.924H14.259V-3.29h4.956V1.092h1.442V-3.29h5.026Z" transform="translate(279 187.933)" fill="#979797"/>
      <path id="패스_4016" data-name="패스 4016" d="M-25.221,0h5.88V-1.33h-2.016V-10.3h-1.218a6.33,6.33,0,0,1-2.24.784V-8.5h1.848V-1.33h-2.254Zm10.766.182c2.016,0,3.332-1.792,3.332-5.376,0-3.556-1.316-5.306-3.332-5.306s-3.332,1.736-3.332,5.306S-16.485.182-14.455.182Zm0-1.274c-1.05,0-1.792-1.12-1.792-4.1,0-2.954.742-4.032,1.792-4.032s1.792,1.078,1.792,4.032C-12.663-2.212-13.405-1.092-14.455-1.092ZM-3.1-5.628v.9h2.38v.546H.721v-7.378H-.721v5.936Zm-2.618-4.746c1.078,0,1.778.336,1.778.924s-.7.924-1.778.924-1.792-.336-1.792-.924S-6.811-10.374-5.719-10.374Zm0,2.814c1.876,0,3.136-.728,3.136-1.89s-1.26-1.89-3.136-1.89-3.15.728-3.15,1.89S-7.609-7.56-5.719-7.56Zm-.8,3.416h1.456V-6.006c1.176-.056,2.38-.154,3.542-.322l-.1-.91c-2.674.28-5.726.294-8.162.294l.168,1.036c.952,0,2,0,3.094-.042Zm.056,4.088V-.98H.721V-3.738H-7.917v.994h7.21v.84H-7.889V.966H1.085V-.056ZM7.469-4.018,9.5-7.126c.294-.532.574-1.064.826-1.582h.056c-.028.56-.084,1.428-.084,1.988v2.7Zm5.656,0H11.809V-10.3H9.947L5.845-3.85v1.078H10.3V0h1.512V-2.772h1.316Zm2.282-1.358A6.126,6.126,0,0,0,19.971-8.12a6.155,6.155,0,0,0,4.578,2.744l.518-1.134c-2.408-.322-4.186-1.708-4.27-3.178h3.822V-10.85h-9.31v1.162h3.85c-.084,1.47-1.862,2.856-4.27,3.178Zm10.29.924H14.259V-3.29h4.956V1.092h1.442V-3.29h5.026Z" transform="translate(390 187.933)" fill="#979797"/>
      <path id="패스_4015" data-name="패스 4015" d="M-25.221,0h5.88V-1.33h-2.016V-10.3h-1.218a6.33,6.33,0,0,1-2.24.784V-8.5h1.848V-1.33h-2.254Zm10.766.182c2.016,0,3.332-1.792,3.332-5.376,0-3.556-1.316-5.306-3.332-5.306s-3.332,1.736-3.332,5.306S-16.485.182-14.455.182Zm0-1.274c-1.05,0-1.792-1.12-1.792-4.1,0-2.954.742-4.032,1.792-4.032s1.792,1.078,1.792,4.032C-12.663-2.212-13.405-1.092-14.455-1.092ZM-3.1-5.628v.9h2.38v.546H.721v-7.378H-.721v5.936Zm-2.618-4.746c1.078,0,1.778.336,1.778.924s-.7.924-1.778.924-1.792-.336-1.792-.924S-6.811-10.374-5.719-10.374Zm0,2.814c1.876,0,3.136-.728,3.136-1.89s-1.26-1.89-3.136-1.89-3.15.728-3.15,1.89S-7.609-7.56-5.719-7.56Zm-.8,3.416h1.456V-6.006c1.176-.056,2.38-.154,3.542-.322l-.1-.91c-2.674.28-5.726.294-8.162.294l.168,1.036c.952,0,2,0,3.094-.042Zm.056,4.088V-.98H.721V-3.738H-7.917v.994h7.21v.84H-7.889V.966H1.085V-.056ZM9.317.182a3.4,3.4,0,0,0,3.472-3.57A2.963,2.963,0,0,0,9.653-6.664,2.9,2.9,0,0,0,8.239-6.3l.238-2.646H12.3V-10.3H7.077L6.769-5.418l.784.518A2.711,2.711,0,0,1,9.2-5.488a1.911,1.911,0,0,1,1.96,2.156,2.014,2.014,0,0,1-2.044,2.2A3.3,3.3,0,0,1,6.713-2.24l-.77,1.05A4.56,4.56,0,0,0,9.317.182Zm6.09-5.558A6.126,6.126,0,0,0,19.971-8.12a6.155,6.155,0,0,0,4.578,2.744l.518-1.134c-2.408-.322-4.186-1.708-4.27-3.178h3.822V-10.85h-9.31v1.162h3.85c-.084,1.47-1.862,2.856-4.27,3.178Zm10.29.924H14.259V-3.29h4.956V1.092h1.442V-3.29h5.026Z" transform="translate(500 187.933)" fill="#979797"/>
    </g>
    <g id="그룹_3691" data-name="그룹 3691" transform="translate(1103 -3705)">
      <path id="패스_2859" data-name="패스 2859" d="M1243.129-134.851l110.958-39.9,109.88-47.2,112.757,87.1,106.617,12.277V-61.23l-440.212.065Z" transform="translate(-974.46 255.183)" opacity="0.3" fill="url(#linear-gradient)"/>
      <path id="패스_2838" data-name="패스 2838" d="M1243.077-133.739,1353.7-173.577l110.5-48.278,111.81,86.691,107.773,14.942" transform="translate(-974.46 255.183)" fill="none" stroke="#811afb" stroke-width="1"/>
      <g id="그룹_3337" data-name="그룹 3337" transform="translate(262.6 116.996)">
        <circle id="타원_47" data-name="타원 47" cx="6" cy="6" r="6" fill="#fff"/>
        <g id="타원_133" data-name="타원 133" transform="translate(2 2)" fill="#fff" stroke="#811afb" stroke-width="2">
          <circle cx="4" cy="4" r="4" stroke="none"/>
          <circle cx="4" cy="4" r="3" fill="none"/>
        </g>
      </g>
      <g id="그룹_3338" data-name="그룹 3338" transform="translate(372.965 75.529)">
        <circle id="타원_47-2" data-name="타원 47" cx="6" cy="6" r="6" fill="#fff"/>
        <g id="타원_133-2" data-name="타원 133" transform="translate(2 2)" fill="#fff" stroke="#811afb" stroke-width="2">
          <circle cx="4" cy="4" r="4" stroke="none"/>
          <circle cx="4" cy="4" r="3" fill="none"/>
        </g>
      </g>
      <g id="그룹_3339" data-name="그룹 3339" transform="translate(483.33 27.229)">
        <circle id="타원_47-3" data-name="타원 47" cx="6" cy="6" r="6" fill="#fff"/>
        <g id="타원_133-3" data-name="타원 133" transform="translate(2 2)" fill="#fff" stroke="#811afb" stroke-width="2">
          <circle cx="4" cy="4" r="4" stroke="none"/>
          <circle cx="4" cy="4" r="3" fill="none"/>
        </g>
      </g>
      <g id="그룹_3340" data-name="그룹 3340" transform="translate(595.887 113.623)">
        <circle id="타원_47-4" data-name="타원 47" cx="6" cy="6" r="6" fill="#fff"/>
        <g id="타원_133-4" data-name="타원 133" transform="translate(2 2)" fill="#fff" stroke="#811afb" stroke-width="2">
          <circle cx="4" cy="4" r="4" stroke="none"/>
          <circle cx="4" cy="4" r="3" fill="none"/>
        </g>
      </g>
      <g id="그룹_3341" data-name="그룹 3341" transform="translate(703 128.844)">
        <circle id="타원_47-5" data-name="타원 47" cx="6" cy="6" r="6" fill="#fff"/>
        <g id="타원_133-5" data-name="타원 133" transform="translate(2 2)" fill="#fff" stroke="#811afb" stroke-width="2">
          <circle cx="4" cy="4" r="4" stroke="none"/>
          <circle cx="4" cy="4" r="3" fill="none"/>
        </g>
      </g>
    </g>
  </g>
</svg>
