<svg xmlns="http://www.w3.org/2000/svg" xmlns:xlink="http://www.w3.org/1999/xlink" width="899.966" height="246.5" viewBox="0 0 899.966 246.5">
  <defs>
    <linearGradient id="linear-gradient" x1="0.5" x2="0.5" y2="1" gradientUnits="objectBoundingBox">
      <stop offset="0" stop-color="#ee9004"/>
      <stop offset="1" stop-color="#fff" stop-opacity="0"/>
    </linearGradient>
  </defs>
  <g id="dash-img04" transform="translate(-8.32 31.5)">
    <path id="패스_4037" data-name="패스 4037" d="M-12.208.182a3.4,3.4,0,0,0,3.472-3.57,2.963,2.963,0,0,0-3.136-3.276,2.9,2.9,0,0,0-1.414.364l.238-2.646h3.822V-10.3h-5.222l-.308,4.886.784.518a2.711,2.711,0,0,1,1.652-.588,1.911,1.911,0,0,1,1.96,2.156,2.014,2.014,0,0,1-2.044,2.2A3.3,3.3,0,0,1-14.812-2.24l-.77,1.05A4.56,4.56,0,0,0-12.208.182Zm8.218,0C-1.974.182-.658-1.61-.658-5.194-.658-8.75-1.974-10.5-3.99-10.5S-7.322-8.764-7.322-5.194-6.02.182-3.99.182Zm0-1.274c-1.05,0-1.792-1.12-1.792-4.1,0-2.954.742-4.032,1.792-4.032S-2.2-8.148-2.2-5.194C-2.2-2.212-2.94-1.092-3.99-1.092Z" transform="translate(24 -21)" fill="#979797"/>
    <path id="패스_4036" data-name="패스 4036" d="M-14.056-4.018l2.03-3.108c.294-.532.574-1.064.826-1.582h.056c-.028.56-.084,1.428-.084,1.988v2.7Zm5.656,0H-9.716V-10.3h-1.862l-4.1,6.454v1.078h4.452V0h1.512V-2.772H-8.4Zm4.41,4.2C-1.974.182-.658-1.61-.658-5.194-.658-8.75-1.974-10.5-3.99-10.5S-7.322-8.764-7.322-5.194-6.02.182-3.99.182Zm0-1.274c-1.05,0-1.792-1.12-1.792-4.1,0-2.954.742-4.032,1.792-4.032S-2.2-8.148-2.2-5.194C-2.2-2.212-2.94-1.092-3.99-1.092Z" transform="translate(24 20)" fill="#979797"/>
    <path id="패스_4035" data-name="패스 4035" d="M-12.208.182c1.89,0,3.444-1.092,3.444-2.954a2.609,2.609,0,0,0-2.128-2.576v-.07A2.491,2.491,0,0,0-9.114-7.84c0-1.708-1.3-2.66-3.15-2.66a4.343,4.343,0,0,0-2.954,1.246l.84,1.008a3.017,3.017,0,0,1,2.058-.98,1.442,1.442,0,0,1,1.582,1.5c0,1.036-.672,1.806-2.7,1.806v1.19c2.324,0,3.052.742,3.052,1.89a1.73,1.73,0,0,1-1.96,1.708,3.33,3.33,0,0,1-2.436-1.134l-.784,1.036A4.277,4.277,0,0,0-12.208.182Zm8.218,0C-1.974.182-.658-1.61-.658-5.194-.658-8.75-1.974-10.5-3.99-10.5S-7.322-8.764-7.322-5.194-6.02.182-3.99.182Zm0-1.274c-1.05,0-1.792-1.12-1.792-4.1,0-2.954.742-4.032,1.792-4.032S-2.2-8.148-2.2-5.194C-2.2-2.212-2.94-1.092-3.99-1.092Z" transform="translate(24 61)" fill="#979797"/>
    <path id="패스_4034" data-name="패스 4034" d="M-15.344,0h6.65V-1.372H-11.27c-.5,0-1.148.042-1.68.1,2.184-2.086,3.766-4.144,3.766-6.132A2.914,2.914,0,0,0-12.292-10.5a4.043,4.043,0,0,0-3.136,1.54l.91.9a2.8,2.8,0,0,1,2.03-1.148,1.68,1.68,0,0,1,1.75,1.89c0,1.694-1.568,3.7-4.606,6.384ZM-3.99.182C-1.974.182-.658-1.61-.658-5.194-.658-8.75-1.974-10.5-3.99-10.5S-7.322-8.764-7.322-5.194-6.02.182-3.99.182Zm0-1.274c-1.05,0-1.792-1.12-1.792-4.1,0-2.954.742-4.032,1.792-4.032S-2.2-8.148-2.2-5.194C-2.2-2.212-2.94-1.092-3.99-1.092Z" transform="translate(24 101)" fill="#979797"/>
    <path id="패스_4033" data-name="패스 4033" d="M-14.756,0h5.88V-1.33h-2.016V-10.3H-12.11a6.33,6.33,0,0,1-2.24.784V-8.5H-12.5V-1.33h-2.254ZM-3.99.182C-1.974.182-.658-1.61-.658-5.194-.658-8.75-1.974-10.5-3.99-10.5S-7.322-8.764-7.322-5.194-6.02.182-3.99.182Zm0-1.274c-1.05,0-1.792-1.12-1.792-4.1,0-2.954.742-4.032,1.792-4.032S-2.2-8.148-2.2-5.194C-2.2-2.212-2.94-1.092-3.99-1.092Z" transform="translate(24 142)" fill="#979797"/>
    <path id="패스_4032" data-name="패스 4032" d="M-3.99.182C-1.974.182-.658-1.61-.658-5.194-.658-8.75-1.974-10.5-3.99-10.5S-7.322-8.764-7.322-5.194-6.02.182-3.99.182Zm0-1.274c-1.05,0-1.792-1.12-1.792-4.1,0-2.954.742-4.032,1.792-4.032S-2.2-8.148-2.2-5.194C-2.2-2.212-2.94-1.092-3.99-1.092Z" transform="translate(24 183)" fill="#979797"/>
    <path id="패스_4031" data-name="패스 4031" d="M-18.27-4.214l.42-1.386c.336-1.12.658-2.254.952-3.43h.056c.322,1.162.63,2.31.98,3.43l.406,1.386ZM-14.2,0h1.722L-15.89-10.3h-1.876L-21.182,0h1.652l.882-2.94h3.584Zm2.94,3.122h1.6V.63L-9.7-.686a3.175,3.175,0,0,0,2.03.868c1.736,0,3.318-1.512,3.318-4.158,0-2.366-1.092-3.92-3.052-3.92A3.9,3.9,0,0,0-9.772-6.86h-.042L-9.94-7.7h-1.316Zm3.276-4.27a2.609,2.609,0,0,1-1.68-.7V-5.614a2.706,2.706,0,0,1,1.834-.938c1.288,0,1.806.994,1.806,2.6C-6.02-2.142-6.86-1.148-7.98-1.148ZM-2.436,0h1.6V-4.8C-.35-6.02.406-6.454,1.036-6.454a2.278,2.278,0,0,1,.77.126l.294-1.4A1.915,1.915,0,0,0,1.232-7.9,2.662,2.662,0,0,0-.952-6.314H-.994L-1.12-7.7H-2.436ZM9.212.182c2.016,0,3.332-1.792,3.332-5.376,0-3.556-1.316-5.306-3.332-5.306S5.88-8.764,5.88-5.194,7.182.182,9.212.182Zm0-1.274c-1.05,0-1.792-1.12-1.792-4.1,0-2.954.742-4.032,1.792-4.032S11-8.148,11-5.194C11-2.212,10.262-1.092,9.212-1.092Zm5.894-2.926,2.03-3.108c.294-.532.574-1.064.826-1.582h.056c-.028.56-.084,1.428-.084,1.988v2.7Zm5.656,0H19.446V-10.3H17.584l-4.1,6.454v1.078h4.452V0h1.512V-2.772h1.316Z" transform="translate(58 211)" fill="#979797"/>
    <path id="패스_4030" data-name="패스 4030" d="M-18.27-4.214l.42-1.386c.336-1.12.658-2.254.952-3.43h.056c.322,1.162.63,2.31.98,3.43l.406,1.386ZM-14.2,0h1.722L-15.89-10.3h-1.876L-21.182,0h1.652l.882-2.94h3.584Zm2.94,3.122h1.6V.63L-9.7-.686a3.175,3.175,0,0,0,2.03.868c1.736,0,3.318-1.512,3.318-4.158,0-2.366-1.092-3.92-3.052-3.92A3.9,3.9,0,0,0-9.772-6.86h-.042L-9.94-7.7h-1.316Zm3.276-4.27a2.609,2.609,0,0,1-1.68-.7V-5.614a2.706,2.706,0,0,1,1.834-.938c1.288,0,1.806.994,1.806,2.6C-6.02-2.142-6.86-1.148-7.98-1.148ZM-2.436,0h1.6V-4.8C-.35-6.02.406-6.454,1.036-6.454a2.278,2.278,0,0,1,.77.126l.294-1.4A1.915,1.915,0,0,0,1.232-7.9,2.662,2.662,0,0,0-.952-6.314H-.994L-1.12-7.7H-2.436ZM9.212.182c2.016,0,3.332-1.792,3.332-5.376,0-3.556-1.316-5.306-3.332-5.306S5.88-8.764,5.88-5.194,7.182.182,9.212.182Zm0-1.274c-1.05,0-1.792-1.12-1.792-4.1,0-2.954.742-4.032,1.792-4.032S11-8.148,11-5.194C11-2.212,10.262-1.092,9.212-1.092ZM15.9,0h1.652c.168-4.032.546-6.3,2.968-9.324v-.98H13.888v1.358h4.844C16.744-6.174,16.086-3.766,15.9,0Z" transform="translate(196 211)" fill="#979797"/>
    <path id="패스_4029" data-name="패스 4029" d="M-18.27-4.214l.42-1.386c.336-1.12.658-2.254.952-3.43h.056c.322,1.162.63,2.31.98,3.43l.406,1.386ZM-14.2,0h1.722L-15.89-10.3h-1.876L-21.182,0h1.652l.882-2.94h3.584Zm2.94,3.122h1.6V.63L-9.7-.686a3.175,3.175,0,0,0,2.03.868c1.736,0,3.318-1.512,3.318-4.158,0-2.366-1.092-3.92-3.052-3.92A3.9,3.9,0,0,0-9.772-6.86h-.042L-9.94-7.7h-1.316Zm3.276-4.27a2.609,2.609,0,0,1-1.68-.7V-5.614a2.706,2.706,0,0,1,1.834-.938c1.288,0,1.806.994,1.806,2.6C-6.02-2.142-6.86-1.148-7.98-1.148ZM-2.436,0h1.6V-4.8C-.35-6.02.406-6.454,1.036-6.454a2.278,2.278,0,0,1,.77.126l.294-1.4A1.915,1.915,0,0,0,1.232-7.9,2.662,2.662,0,0,0-.952-6.314H-.994L-1.12-7.7H-2.436ZM6.426,0h5.88V-1.33H10.29V-10.3H9.072a6.33,6.33,0,0,1-2.24.784V-8.5H8.68V-1.33H6.426ZM17.192.182c2.016,0,3.332-1.792,3.332-5.376,0-3.556-1.316-5.306-3.332-5.306S13.86-8.764,13.86-5.194,15.162.182,17.192.182Zm0-1.274c-1.05,0-1.792-1.12-1.792-4.1,0-2.954.742-4.032,1.792-4.032s1.792,1.078,1.792,4.032C18.984-2.212,18.242-1.092,17.192-1.092Z" transform="translate(335 211)" fill="#979797"/>
    <path id="패스_4028" data-name="패스 4028" d="M-18.27-4.214l.42-1.386c.336-1.12.658-2.254.952-3.43h.056c.322,1.162.63,2.31.98,3.43l.406,1.386ZM-14.2,0h1.722L-15.89-10.3h-1.876L-21.182,0h1.652l.882-2.94h3.584Zm2.94,3.122h1.6V.63L-9.7-.686a3.175,3.175,0,0,0,2.03.868c1.736,0,3.318-1.512,3.318-4.158,0-2.366-1.092-3.92-3.052-3.92A3.9,3.9,0,0,0-9.772-6.86h-.042L-9.94-7.7h-1.316Zm3.276-4.27a2.609,2.609,0,0,1-1.68-.7V-5.614a2.706,2.706,0,0,1,1.834-.938c1.288,0,1.806.994,1.806,2.6C-6.02-2.142-6.86-1.148-7.98-1.148ZM-2.436,0h1.6V-4.8C-.35-6.02.406-6.454,1.036-6.454a2.278,2.278,0,0,1,.77.126l.294-1.4A1.915,1.915,0,0,0,1.232-7.9,2.662,2.662,0,0,0-.952-6.314H-.994L-1.12-7.7H-2.436ZM6.426,0h5.88V-1.33H10.29V-10.3H9.072a6.33,6.33,0,0,1-2.24.784V-8.5H8.68V-1.33H6.426ZM16.954.182C18.844.182,20.4-.91,20.4-2.772A2.609,2.609,0,0,0,18.27-5.348v-.07A2.491,2.491,0,0,0,20.048-7.84c0-1.708-1.3-2.66-3.15-2.66a4.343,4.343,0,0,0-2.954,1.246l.84,1.008a3.017,3.017,0,0,1,2.058-.98,1.442,1.442,0,0,1,1.582,1.5c0,1.036-.672,1.806-2.7,1.806v1.19c2.324,0,3.052.742,3.052,1.89a1.73,1.73,0,0,1-1.96,1.708,3.33,3.33,0,0,1-2.436-1.134l-.784,1.036A4.277,4.277,0,0,0,16.954.182Z" transform="translate(473 211)" fill="#979797"/>
    <path id="패스_4027" data-name="패스 4027" d="M-18.27-4.214l.42-1.386c.336-1.12.658-2.254.952-3.43h.056c.322,1.162.63,2.31.98,3.43l.406,1.386ZM-14.2,0h1.722L-15.89-10.3h-1.876L-21.182,0h1.652l.882-2.94h3.584Zm2.94,3.122h1.6V.63L-9.7-.686a3.175,3.175,0,0,0,2.03.868c1.736,0,3.318-1.512,3.318-4.158,0-2.366-1.092-3.92-3.052-3.92A3.9,3.9,0,0,0-9.772-6.86h-.042L-9.94-7.7h-1.316Zm3.276-4.27a2.609,2.609,0,0,1-1.68-.7V-5.614a2.706,2.706,0,0,1,1.834-.938c1.288,0,1.806.994,1.806,2.6C-6.02-2.142-6.86-1.148-7.98-1.148ZM-2.436,0h1.6V-4.8C-.35-6.02.406-6.454,1.036-6.454a2.278,2.278,0,0,1,.77.126l.294-1.4A1.915,1.915,0,0,0,1.232-7.9,2.662,2.662,0,0,0-.952-6.314H-.994L-1.12-7.7H-2.436ZM6.426,0h5.88V-1.33H10.29V-10.3H9.072a6.33,6.33,0,0,1-2.24.784V-8.5H8.68V-1.33H6.426Zm11.06-1.05c-1.106,0-1.848-.966-2.016-3.01a2.4,2.4,0,0,1,1.918-1.2c1.106,0,1.694.742,1.694,2.072S18.382-1.05,17.486-1.05Zm2.926-8.344A3.46,3.46,0,0,0,17.836-10.5c-2.03,0-3.892,1.582-3.892,5.544,0,3.5,1.6,5.138,3.556,5.138a3.14,3.14,0,0,0,3.08-3.374c0-2.184-1.162-3.248-2.9-3.248a3.1,3.1,0,0,0-2.24,1.19c.07-2.94,1.162-3.934,2.478-3.934a2.214,2.214,0,0,1,1.61.77Z" transform="translate(611 211)" fill="#979797"/>
    <path id="패스_4026" data-name="패스 4026" d="M-18.27-4.214l.42-1.386c.336-1.12.658-2.254.952-3.43h.056c.322,1.162.63,2.31.98,3.43l.406,1.386ZM-14.2,0h1.722L-15.89-10.3h-1.876L-21.182,0h1.652l.882-2.94h3.584Zm2.94,3.122h1.6V.63L-9.7-.686a3.175,3.175,0,0,0,2.03.868c1.736,0,3.318-1.512,3.318-4.158,0-2.366-1.092-3.92-3.052-3.92A3.9,3.9,0,0,0-9.772-6.86h-.042L-9.94-7.7h-1.316Zm3.276-4.27a2.609,2.609,0,0,1-1.68-.7V-5.614a2.706,2.706,0,0,1,1.834-.938c1.288,0,1.806.994,1.806,2.6C-6.02-2.142-6.86-1.148-7.98-1.148ZM-2.436,0h1.6V-4.8C-.35-6.02.406-6.454,1.036-6.454a2.278,2.278,0,0,1,.77.126l.294-1.4A1.915,1.915,0,0,0,1.232-7.9,2.662,2.662,0,0,0-.952-6.314H-.994L-1.12-7.7H-2.436ZM6.426,0h5.88V-1.33H10.29V-10.3H9.072a6.33,6.33,0,0,1-2.24.784V-8.5H8.68V-1.33H6.426ZM16.968-5.04C15.89-5.04,15.3-5.8,15.3-7.112c0-1.344.7-2.142,1.582-2.142,1.12,0,1.89.924,2.044,2.954A2.471,2.471,0,0,1,16.968-5.04Zm-3,4.13A3.536,3.536,0,0,0,16.6.182c1.988,0,3.836-1.624,3.836-5.684,0-3.4-1.6-5-3.57-5A3.151,3.151,0,0,0,13.8-7.112c0,2.156,1.162,3.234,2.884,3.234a3.1,3.1,0,0,0,2.268-1.2c-.1,2.94-1.176,3.948-2.422,3.948A2.3,2.3,0,0,1,14.84-1.9Z" transform="translate(750 211)" fill="#979797"/>
    <path id="패스_4025" data-name="패스 4025" d="M-18.27-4.214l.42-1.386c.336-1.12.658-2.254.952-3.43h.056c.322,1.162.63,2.31.98,3.43l.406,1.386ZM-14.2,0h1.722L-15.89-10.3h-1.876L-21.182,0h1.652l.882-2.94h3.584Zm2.94,3.122h1.6V.63L-9.7-.686a3.175,3.175,0,0,0,2.03.868c1.736,0,3.318-1.512,3.318-4.158,0-2.366-1.092-3.92-3.052-3.92A3.9,3.9,0,0,0-9.772-6.86h-.042L-9.94-7.7h-1.316Zm3.276-4.27a2.609,2.609,0,0,1-1.68-.7V-5.614a2.706,2.706,0,0,1,1.834-.938c1.288,0,1.806.994,1.806,2.6C-6.02-2.142-6.86-1.148-7.98-1.148ZM-2.436,0h1.6V-4.8C-.35-6.02.406-6.454,1.036-6.454a2.278,2.278,0,0,1,.77.126l.294-1.4A1.915,1.915,0,0,0,1.232-7.9,2.662,2.662,0,0,0-.952-6.314H-.994L-1.12-7.7H-2.436ZM5.838,0h6.65V-1.372H9.912c-.5,0-1.148.042-1.68.1C10.416-3.36,12-5.418,12-7.406A2.914,2.914,0,0,0,8.89-10.5,4.043,4.043,0,0,0,5.754-8.96l.91.9a2.8,2.8,0,0,1,2.03-1.148,1.68,1.68,0,0,1,1.75,1.89c0,1.694-1.568,3.7-4.606,6.384Zm8.568,0h5.88V-1.33H18.27V-10.3H17.052a6.33,6.33,0,0,1-2.24.784V-8.5H16.66V-1.33H14.406Z" transform="translate(888 211)" fill="#979797"/>
    <g id="그룹_3354" data-name="그룹 3354" transform="translate(51 34.121)">
      <path id="패스_2857" data-name="패스 2857" d="M980.64-319.878l139.054,7.49,138.217-109.222,140.73,71.775L1537.7-425.979l139.054,49.93L1816.972-307v55.989H980.64Z" transform="translate(-975.403 431.893)" opacity="0.3" fill="url(#linear-gradient)"/>
      <path id="패스_2835" data-name="패스 2835" d="M1816.972-307,1676.75-376.049,1537.7-425.979l-139.054,76.143-140.73-71.775L1119.694-312.388l-139.054-7.49" transform="translate(-975.403 431.893)" fill="none" stroke="#f90" stroke-width="1"/>
      <g id="그룹_3318" data-name="그룹 3318" transform="translate(0 105)">
        <circle id="타원_47" data-name="타원 47" cx="6" cy="6" r="6" fill="#fff"/>
        <g id="타원_133" data-name="타원 133" transform="translate(2 2)" fill="#fff" stroke="#f90" stroke-width="2">
          <circle cx="4" cy="4" r="4" stroke="none"/>
          <circle cx="4" cy="4" r="3" fill="none"/>
        </g>
      </g>
      <g id="그룹_3319" data-name="그룹 3319" transform="translate(139 112.89)">
        <circle id="타원_47-2" data-name="타원 47" cx="6" cy="6" r="6" fill="#fff"/>
        <g id="타원_133-2" data-name="타원 133" transform="translate(2 2)" fill="#fff" stroke="#f90" stroke-width="2">
          <circle cx="4" cy="4" r="4" stroke="none"/>
          <circle cx="4" cy="4" r="3" fill="none"/>
        </g>
      </g>
      <g id="그룹_3320" data-name="그룹 3320" transform="translate(277.314 6)">
        <circle id="타원_47-3" data-name="타원 47" cx="6" cy="6" r="6" fill="#fff"/>
        <g id="타원_133-3" data-name="타원 133" transform="translate(2 2)" fill="#fff" stroke="#f90" stroke-width="2">
          <circle cx="4" cy="4" r="4" stroke="none"/>
          <circle cx="4" cy="4" r="3" fill="none"/>
        </g>
      </g>
      <g id="그룹_3321" data-name="그룹 3321" transform="translate(417.854 74)">
        <circle id="타원_47-4" data-name="타원 47" cx="6" cy="6" r="6" fill="#fff"/>
        <g id="타원_133-4" data-name="타원 133" transform="translate(2 2)" fill="#fff" stroke="#f90" stroke-width="2">
          <circle cx="4" cy="4" r="4" stroke="none"/>
          <circle cx="4" cy="4" r="3" fill="none"/>
        </g>
      </g>
      <g id="그룹_3322" data-name="그룹 3322" transform="translate(557.138)">
        <circle id="타원_47-5" data-name="타원 47" cx="6" cy="6" r="6" fill="#fff"/>
        <g id="타원_133-5" data-name="타원 133" transform="translate(2 2)" fill="#fff" stroke="#f90" stroke-width="2">
          <circle cx="4" cy="4" r="4" stroke="none"/>
          <circle cx="4" cy="4" r="3" fill="none"/>
        </g>
      </g>
      <g id="그룹_3323" data-name="그룹 3323" transform="translate(698.707 50)">
        <circle id="타원_47-6" data-name="타원 47" cx="6" cy="6" r="6" fill="#fff"/>
        <g id="타원_133-6" data-name="타원 133" transform="translate(2 2)" fill="#fff" stroke="#f90" stroke-width="2">
          <circle cx="4" cy="4" r="4" stroke="none"/>
          <circle cx="4" cy="4" r="3" fill="none"/>
        </g>
      </g>
      <g id="그룹_3324" data-name="그룹 3324" transform="translate(835.707 119)">
        <circle id="타원_47-7" data-name="타원 47" cx="6" cy="6" r="6" fill="#fff"/>
        <g id="타원_133-7" data-name="타원 133" transform="translate(2 2)" fill="#fff" stroke="#f90" stroke-width="2">
          <circle cx="4" cy="4" r="4" stroke="none"/>
          <circle cx="4" cy="4" r="3" fill="none"/>
        </g>
      </g>
    </g>
  </g>
</svg>
