<svg xmlns="http://www.w3.org/2000/svg" xmlns:xlink="http://www.w3.org/1999/xlink" width="499.5" height="234.496" viewBox="0 0 499.5 234.496">
  <defs>
    <clipPath id="clip-path">
      <rect id="사각형_1504" data-name="사각형 1504" width="203.51" height="203.504" fill="none"/>
    </clipPath>
  </defs>
  <g id="dash-img03_1" transform="translate(-1103.25 4131)">
    <g id="그룹_3684" data-name="그룹 3684" transform="translate(1103.25 -4100.008)">
      <g id="그룹_3607" data-name="그룹 3607" transform="translate(0 0)" clip-path="url(#clip-path)">
        <path id="패스_3955" data-name="패스 3955" d="M101.125,0V28.546a73.169,73.169,0,0,1,21.61,3.395l8.776-27.167A101.65,101.65,0,0,0,101.125,0" transform="translate(1.136)" fill="#72cbb0"/>
        <path id="패스_3956" data-name="패스 3956" d="M70.468,35.251a72.887,72.887,0,0,1,30.127-6.705V0A101.354,101.354,0,0,0,58.314,9.407Z" transform="translate(0.655)" fill="#73c1e9"/>
        <path id="패스_3957" data-name="패스 3957" d="M129.752,168.657a73.229,73.229,0,0,1-97.02-92.091L5.857,66.911A101.8,101.8,0,0,0,140.851,194.965Z" transform="translate(0 0.751)" fill="#f5d473"/>
        <path id="패스_3958" data-name="패스 3958" d="M132.223,5.03l-8.781,27.179A73.222,73.222,0,0,1,129.3,168.96l11.1,26.307A101.788,101.788,0,0,0,132.223,5.03" transform="translate(1.386 0.056)" fill="#759fe8"/>
        <path id="패스_3959" data-name="패스 3959" d="M33,76.254A73.459,73.459,0,0,1,70.132,35.559L57.984,9.726A102.091,102.091,0,0,0,6.126,66.6Z" transform="translate(0.069 0.109)" fill="#c99eef"/>
      </g>
    </g>
    <g id="그룹_3686" data-name="그룹 3686" transform="translate(751.75 -4731)">
      <text id="총회원_3_200명" data-name="총회원 3,200명" transform="translate(412 749)" fill="#979797" font-size="13" font-family="NotoSansCJKkr-Regular, Noto Sans CJK KR"><tspan x="0" y="0">총회원 3,200명</tspan></text>
      <text id="연령대_회원가입" data-name="연령대 회원가입" transform="translate(403 729)" fill="#151917" font-size="15" font-family="NotoSansCJKkr-Bold, Noto Sans CJK KR" font-weight="700"><tspan x="0" y="0">연령대 회원가입</tspan></text>
    </g>
    <g id="그룹_3688" data-name="그룹 3688" transform="translate(1015.75 -4731)">
      <text id="가입유형별" transform="translate(452 739)" fill="#151917" font-size="15" font-family="NotoSansCJKkr-Bold, Noto Sans CJK KR" font-weight="700"><tspan x="-34.5" y="0">가입유형별</tspan></text>
    </g>
    <g id="그룹_3687" data-name="그룹 3687" transform="translate(1366.74 -4100.008)">
      <g id="그룹_3610" data-name="그룹 3610" clip-path="url(#clip-path)">
        <path id="패스_3960" data-name="패스 3960" d="M58.314,9.407,70.468,35.251a72.887,72.887,0,0,1,30.127-6.705V0A101.354,101.354,0,0,0,58.314,9.407" transform="translate(0.655)" fill="#7edbbf"/>
        <path id="패스_3961" data-name="패스 3961" d="M33,76.254A73.459,73.459,0,0,1,70.132,35.559L57.984,9.726A102.091,102.091,0,0,0,6.126,66.6Z" transform="translate(0.069 0.109)" fill="#c99eef"/>
        <path id="패스_3962" data-name="패스 3962" d="M129.752,168.657a73.229,73.229,0,0,1-97.02-92.091L5.857,66.911A101.8,101.8,0,0,0,140.851,194.965Z" transform="translate(0 0.751)" fill="#f5d473"/>
        <path id="패스_3963" data-name="패스 3963" d="M101.125,0V28.546a73.214,73.214,0,0,1,28.423,140.47l11.1,26.308A101.766,101.766,0,0,0,101.125,0" transform="translate(1.136)" fill="#759fe8"/>
      </g>
    </g>
    <g id="그룹_3685" data-name="그룹 3685" transform="translate(1198 -4123.406)">
      <g id="그룹_3614" data-name="그룹 3614">
        <path id="패스_3965" data-name="패스 3965" d="M181.166,319H169.885l5.378,4.69a.382.382,0,0,0,.263.082.374.374,0,0,0,.263-.074Z" transform="translate(-153.259 -287.683)" fill="#3a3c40"/>
        <rect id="사각형_1506" data-name="사각형 1506" width="71" height="39" rx="5" transform="translate(-13.25 -7.594)" fill="#3a3c40"/>
      </g>
    </g>
    <path id="패스_4014" data-name="패스 4014" d="M1.118,0h5.46V-1.235H4.706V-9.568H3.575A5.877,5.877,0,0,1,1.5-8.84v.949H3.211v6.656H1.118Zm10,.169c1.872,0,3.094-1.664,3.094-4.992,0-3.3-1.222-4.927-3.094-4.927S8.021-8.138,8.021-4.823,9.23.169,11.115.169Zm0-1.183c-.975,0-1.664-1.04-1.664-3.809,0-2.743.689-3.744,1.664-3.744s1.664,1,1.664,3.744C12.779-2.054,12.09-1.014,11.115-1.014Zm6.071-7.241h3.029V-9.347H15.873v7.553h.78a21.177,21.177,0,0,0,4.277-.325l-.117-1.105a18.016,18.016,0,0,1-3.627.325Zm7.033-2.5V-6.11H22.828V-10.5H21.567V.416h1.261V-5.018h1.391V.988h1.274V-10.751Z" transform="translate(1190.75 -4113)" fill="#fff"/>
    <path id="패스_4013" data-name="패스 4013" d="M2.684,2.1l.231-.143A9.924,9.924,0,0,1,1.452-3.366,9.951,9.951,0,0,1,2.915-8.69l-.231-.154a10.106,10.106,0,0,0-1.6,5.478A10.013,10.013,0,0,0,2.684,2.1ZM6.006.143A2.5,2.5,0,0,0,8.437-2.541,2.257,2.257,0,0,0,6.083-5.1a2.591,2.591,0,0,0-1.441.418l.264-2.937H8.03v-.363H4.543L4.257-4.4l.33.2A2.447,2.447,0,0,1,6.05-4.73,1.956,1.956,0,0,1,8.019-2.519,2.124,2.124,0,0,1,6.028-.22a2.735,2.735,0,0,1-2.167-.968l-.253.3A3.152,3.152,0,0,0,6.006.143Zm4.279,0a.451.451,0,0,0,.451-.473.458.458,0,0,0-.451-.5.456.456,0,0,0-.44.5A.449.449,0,0,0,10.285.143ZM12.067,0h4.675V-.363H14.036c-.429,0-.869.022-1.309.055,2.31-2.134,3.619-3.828,3.619-5.577a2.03,2.03,0,0,0-2.134-2.244A2.871,2.871,0,0,0,12.045-7l.275.253a2.458,2.458,0,0,1,1.859-1.023,1.675,1.675,0,0,1,1.749,1.881c0,1.507-1.023,3.2-3.861,5.632Zm7.4-3.124c1.056,0,1.683-.891,1.683-2.519,0-1.6-.627-2.486-1.683-2.486S17.8-7.238,17.8-5.643C17.8-4.015,18.425-3.124,19.47-3.124Zm0-.319c-.792,0-1.3-.825-1.3-2.2s.506-2.167,1.3-2.167,1.3.792,1.3,2.167S20.273-3.443,19.47-3.443Zm.2,3.586h.407l4.466-8.272h-.4Zm5.126,0c1.034,0,1.672-.891,1.672-2.519,0-1.6-.638-2.486-1.672-2.486-1.056,0-1.683.891-1.683,2.486C23.111-.748,23.738.143,24.794.143Zm0-.319c-.8,0-1.309-.825-1.309-2.2s.506-2.167,1.309-2.167c.781,0,1.3.792,1.3,2.167S25.575-.176,24.794-.176ZM27.577,2.1a10.013,10.013,0,0,0,1.6-5.467,10.106,10.106,0,0,0-1.6-5.478l-.242.154a9.959,9.959,0,0,1,1.474,5.324,9.932,9.932,0,0,1-1.474,5.324Z" transform="translate(1217.75 -4114)" fill="#fff" stroke="#fff" stroke-width="0.3"/>
    <g id="그룹_3689" data-name="그룹 3689" transform="translate(738.25 -4717.5)">
      <g id="그룹_3617" data-name="그룹 3617" transform="translate(777.75 667.91)">
        <g id="그룹_3614-2" data-name="그룹 3614">
          <path id="패스_3965-2" data-name="패스 3965" d="M181.166,319H169.885l5.378,4.69a.382.382,0,0,0,.263.082.374.374,0,0,0,.263-.074Z" transform="translate(-140.259 -287.683)" fill="#3a3c40"/>
          <rect id="사각형_1506-2" data-name="사각형 1506" width="100" height="39" rx="5" transform="translate(-13.25 -7.594)" fill="#3a3c40"/>
        </g>
      </g>
      <text id="포털사이트검색" transform="translate(772 678.317)" fill="#fff" font-size="13" font-family="NotoSansCJKkr-Medium, Noto Sans CJK KR" font-weight="500"><tspan x="0" y="0">포털사이트검색</tspan></text>
      <text id="_45_" data-name="(45%)" transform="translate(800 692.317)" fill="#fff" font-size="11" font-family="NotoSansCJKkr-Thin, Noto Sans CJK KR" font-weight="200"><tspan x="0" y="0">(45%)</tspan></text>
    </g>
    <path id="패스_4012" data-name="패스 4012" d="M1.012,0H5.148V-.561H3.476V-8.019H2.959a4.6,4.6,0,0,1-1.529.506v.429h1.4V-.561H1.012ZM8.668.143a2.54,2.54,0,0,0,2.508-2.717A2.276,2.276,0,0,0,8.8-5.148a2.473,2.473,0,0,0-1.342.385l.231-2.695H10.78v-.561H7.117L6.842-4.356,7.26-4.1a2.325,2.325,0,0,1,1.419-.506,1.816,1.816,0,0,1,1.837,2.057A1.966,1.966,0,0,1,8.646-.407a2.7,2.7,0,0,1-2.1-.946L6.193-.9A3.3,3.3,0,0,0,8.668.143Zm6.05,0c1.452,0,2.354-1.364,2.354-4.18,0-2.783-.9-4.125-2.354-4.125S12.353-6.82,12.353-4.037C12.353-1.221,13.255.143,14.718.143Zm0-.539c-1.045,0-1.727-1.21-1.727-3.641,0-2.387.682-3.586,1.727-3.586s1.716,1.2,1.716,3.586C16.434-1.606,15.752-.4,14.718-.4Zm7.832-4.07H19.327V-7.755H22.55Zm3.1-2.365V-5.39h-2.53V-6.831ZM23.122-4.9h2.53V-3.19h.583V-9h-.583v1.672h-2.53v-.913H18.766v4.257h4.356ZM23.078.264c-1.595,0-2.618-.506-2.618-1.331S21.483-2.4,23.078-2.4s2.629.517,2.629,1.331S24.673.264,23.078.264Zm0-3.135c-1.98,0-3.2.649-3.2,1.8s1.221,1.8,3.2,1.8,3.2-.649,3.2-1.8S25.058-2.871,23.078-2.871Z" transform="translate(1206.75 -4099)" fill="#fff"/>
  </g>
</svg>
